<svg aria-hidden="true" style="position: absolute; width: 0; height: 0; overflow: hidden;" version="1.1" xmlns="http://www.w3.org/2000/svg" xmlns:xlink="http://www.w3.org/1999/xlink">
<defs>
<symbol id="icon-close" viewBox="0 0 32 32">
<path d="M32 3.223l-3.223-3.223-12.777 12.777-12.777-12.777-3.223 3.223 12.777 12.777-12.777 12.777 3.223 3.223 12.777-12.777 12.777 12.777 3.223-3.223-12.777-12.777 12.777-12.777z"></path>
</symbol>
<symbol id="icon-Btn" viewBox="0 0 115 32">
<path fill="#2196f3" style="fill: var(--color1, #2196f3)" d="M4.414 0h105.931c1.219 0 2.207 0.988 2.207 2.207v23.172c0 1.219-0.988 2.207-2.207 2.207h-105.931c-1.219 0-2.207-0.988-2.207-2.207v-23.172c0-1.219 0.988-2.207 2.207-2.207z"></path>
<path fill="#fff" style="fill: var(--color2, #fff)" d="M38.877 13.556c0 0.618-0.109 1.159-0.328 1.625s-0.532 0.825-0.94 1.078c-0.405 0.253-0.871 0.379-1.397 0.379-0.52 0-0.984-0.125-1.392-0.375s-0.724-0.606-0.948-1.069c-0.224-0.466-0.338-1-0.341-1.603v-0.31c0-0.618 0.111-1.161 0.332-1.629 0.224-0.471 0.539-0.832 0.944-1.082 0.408-0.253 0.874-0.379 1.397-0.379s0.987 0.126 1.392 0.379c0.408 0.25 0.723 0.611 0.944 1.082 0.224 0.468 0.336 1.010 0.336 1.625v0.28zM37.567 13.272c0-0.658-0.118-1.158-0.353-1.5s-0.572-0.513-1.009-0.513c-0.434 0-0.769 0.17-1.004 0.509-0.236 0.336-0.355 0.83-0.358 1.483v0.306c0 0.641 0.118 1.138 0.353 1.491s0.575 0.53 1.017 0.53c0.434 0 0.767-0.17 1-0.509 0.233-0.342 0.351-0.839 0.353-1.491v-0.306zM44.135 12.888h-1.496v3.664h-1.25v-3.664h-1.47v-1h4.215v1zM49.35 16.552h-1.25v-3.655h-1.56v3.655h-1.246v-4.664h4.056v4.664zM55.031 14.263c0 0.718-0.164 1.294-0.491 1.728-0.325 0.431-0.764 0.647-1.319 0.647-0.471 0-0.852-0.164-1.142-0.491v2.198h-1.246v-6.457h1.155l0.043 0.457c0.302-0.362 0.695-0.543 1.181-0.543 0.575 0 1.022 0.213 1.341 0.638s0.478 1.011 0.478 1.759v0.065zM53.785 14.172c0-0.434-0.078-0.769-0.233-1.004-0.152-0.236-0.375-0.353-0.668-0.353-0.391 0-0.659 0.149-0.806 0.448v1.909c0.152 0.307 0.424 0.461 0.815 0.461 0.595 0 0.892-0.487 0.892-1.461zM59.039 16.552c-0.057-0.112-0.099-0.251-0.125-0.418-0.302 0.336-0.694 0.504-1.177 0.504-0.457 0-0.836-0.132-1.138-0.397-0.299-0.264-0.449-0.598-0.449-1 0-0.494 0.183-0.874 0.548-1.138 0.367-0.264 0.898-0.398 1.59-0.401h0.574v-0.267c0-0.216-0.056-0.388-0.168-0.517-0.109-0.129-0.283-0.194-0.521-0.194-0.21 0-0.375 0.050-0.496 0.151-0.118 0.101-0.177 0.239-0.177 0.414h-1.246c0-0.27 0.083-0.52 0.25-0.75s0.402-0.409 0.707-0.539c0.305-0.132 0.647-0.198 1.026-0.198 0.574 0 1.030 0.145 1.366 0.435 0.339 0.287 0.509 0.693 0.509 1.216v2.022c0.003 0.443 0.065 0.777 0.185 1.004v0.073h-1.258zM58.009 15.685c0.184 0 0.353-0.040 0.508-0.121 0.156-0.083 0.27-0.194 0.345-0.332v-0.802h-0.466c-0.623 0-0.956 0.216-0.996 0.647l-0.004 0.073c0 0.155 0.055 0.283 0.164 0.384s0.259 0.151 0.449 0.151zM61.681 16.552v-4.664h1.948c0.635 0 1.122 0.112 1.462 0.336s0.508 0.546 0.508 0.966c0 0.216-0.072 0.409-0.215 0.582-0.141 0.17-0.348 0.3-0.621 0.392 0.333 0.063 0.595 0.188 0.785 0.375 0.193 0.184 0.289 0.411 0.289 0.681 0 0.434-0.164 0.764-0.491 0.991-0.325 0.227-0.798 0.341-1.418 0.341h-2.246zM62.926 14.616v0.94h1.004c0.44 0 0.659-0.154 0.659-0.461 0-0.313-0.21-0.473-0.629-0.478h-1.034zM62.926 13.78h0.771c0.437-0.006 0.655-0.147 0.655-0.422 0-0.17-0.061-0.29-0.181-0.362-0.118-0.072-0.299-0.108-0.543-0.108h-0.702v0.892zM69.939 11.888h1.246v4.664h-1.246v-2.879l-1.56 2.879h-1.25v-4.664h1.25v2.875l1.56-2.875zM76.537 12.888h-1.496v3.664h-1.25v-3.664h-1.47v-1h4.216v1zM79.028 13.254h0.893c0.402 0 0.755 0.068 1.060 0.203s0.537 0.329 0.698 0.582c0.164 0.25 0.246 0.542 0.246 0.875 0 0.491-0.182 0.888-0.547 1.19-0.362 0.299-0.856 0.448-1.482 0.448h-2.116v-4.664h1.25v1.366zM79.028 14.254v1.302h0.884c0.247 0 0.437-0.057 0.569-0.172s0.199-0.272 0.199-0.47c0-0.201-0.065-0.361-0.194-0.478-0.129-0.121-0.321-0.181-0.573-0.181h-0.884z"></path>
</symbol>
<symbol id="icon-check-on" viewBox="0 0 34 32">
<path fill="#2196f3" style="fill: var(--color1, #2196f3)" d="M4.267 0h25.6c2.356 0 4.267 1.91 4.267 4.267v23.467c0 2.356-1.91 4.267-4.267 4.267h-25.6c-2.356 0-4.267-1.91-4.267-4.267v-23.467c0-2.356 1.91-4.267 4.267-4.267z"></path>
<path fill="#fff" style="fill: var(--color2, #fff); stroke: var(--color2, #fff)" stroke="#fff" stroke-linejoin="miter" stroke-linecap="butt" stroke-miterlimit="4" stroke-width="0.4267" d="M8.442 16.537l-0.147-0.14-2.205 2.088 7.767 7.41 16.318-15.567-2.19-2.089-14.128 13.465-5.416-5.167z"></path>
</symbol>
<symbol id="icon-check" viewBox="0 0 34 32">
<path d="M30.341 3.556v24.889h-26.548v-24.889h26.548zM30.341 0h-26.548c-2.086 0-3.793 1.6-3.793 3.556v24.889c0 1.956 1.707 3.556 3.793 3.556h26.548c2.086 0 3.793-1.6 3.793-3.556v-24.889c0-1.956-1.707-3.556-3.793-3.556z"></path>
</symbol>
<symbol id="icon-inp-mail" viewBox="0 0 43 32">
<path d="M37.333 0h-32c-2.2 0-3.98 1.8-3.98 4l-0.020 24c0 2.2 1.8 4 4 4h32c2.2 0 4-1.8 4-4v-24c0-2.2-1.8-4-4-4zM36.533 8.5l-14.14 8.84c-0.64 0.4-1.48 0.4-2.12 0l-14.14-8.84c-0.5-0.32-0.8-0.86-0.8-1.44 0-1.34 1.46-2.14 2.6-1.44l13.4 8.38 13.4-8.38c1.14-0.7 2.6 0.1 2.6 1.44 0 0.58-0.3 1.12-0.8 1.44z"></path>
</symbol>
<symbol id="icon-inp-name" viewBox="0 0 32 32">
<path d="M16 16c4.42 0 8-3.58 8-8s-3.58-8-8-8c-4.42 0-8 3.58-8 8s3.58 8 8 8zM16 20c-5.34 0-16 2.68-16 8v2c0 1.1 0.9 2 2 2h28c1.1 0 2-0.9 2-2v-2c0-5.32-10.66-8-16-8z"></path>
</symbol>
<symbol id="icon-inp-tel" viewBox="0 0 32 32">
<path d="M27.419 20.852l-4.202-0.48c-1.009-0.116-2.001 0.232-2.713 0.943l-3.044 3.044c-4.681-2.382-8.519-6.203-10.901-10.901l3.060-3.060c0.711-0.711 1.059-1.704 0.943-2.713l-0.48-4.168c-0.198-1.671-1.604-2.928-3.292-2.928h-2.862c-1.869 0-3.424 1.555-3.308 3.424 0.877 14.126 12.174 25.407 26.284 26.284 1.869 0.116 3.424-1.439 3.424-3.308v-2.861c0.016-1.671-1.241-3.077-2.911-3.275z"></path>
</symbol>
</defs>
</svg>
